<svg xmlns="http://www.w3.org/2000/svg" viewBox="0 0 160 280"><path d="M59 102v26h40v-26" fill="#855538"/><path d="M55 200v48M104 200v48" stroke="#344365" stroke-width="22" stroke-linecap="round"/><path d="M43 247h29v21H34q0-14 9-21M95 247h23q16 11 14 21H95Z" fill="#2d2e47"/><path d="M47 122h66l12 87H35Z" fill="#526a91"/><path d="M48 134l-17 50M112 134l20 50" stroke="#526a91" stroke-width="18" stroke-linecap="round"/><circle cx="31" cy="187" r="9" fill="#855538"/><circle cx="132" cy="187" r="9" fill="#855538"/><path d="M43 192h75" stroke="#313850" stroke-width="10"/><rect x="72" y="187" width="17" height="11" rx="2" fill="#e3c479"/><path d="M81 126v62M57 129l12 10M104 129l-13 10" stroke="#34486d" stroke-width="3" fill="none"/><path d="M101 151c-16-15-22 4 0 15 22-11 16-30 0-15Z" fill="#e3c479"/><ellipse cx="80" cy="71" rx="37" ry="43" fill="#855538"/><ellipse cx="43" cy="75" rx="7" ry="10" fill="#855538"/><ellipse cx="117" cy="75" rx="7" ry="10" fill="#855538"/><path d="M49 43q1-25 31-25t31 25" fill="#29324d"/><path d="M45 24q35-16 72 0l-5 21H50Z" fill="#435d84"/><path d="M39 44q40-16 81 0l9 9q-48 7-92 0Z" fill="#303e63"/><path d="M76 26h9v11h-9Z" fill="#e2c479"/><circle cx="65" cy="69" r="5" fill="#302122"/><circle cx="97" cy="69" r="5" fill="#302122"/><circle cx="66" cy="67" r="1.5" fill="#fff4dc"/><circle cx="98" cy="67" r="1.5" fill="#fff4dc"/><path d="M79 73l-3 9h7" stroke="#613923" stroke-width="2" fill="none"/><path d="M65 90q15 15 31 0Z" fill="#fff3da"/></svg>
